<svg width="109" height="108" viewBox="0 0 109 108" fill="none" xmlns="http://www.w3.org/2000/svg">
<g filter="url(#filter0_d_52_19215)">
<path d="M0.934204 6.99999C0.934204 3.68629 3.6205 1 6.9342 1H98.9342C102.248 1 104.934 3.68629 104.934 7V88.22C104.934 92.3433 100.857 95.2941 96.8773 94.2146C90.2678 92.4216 80.7252 90.2914 72.6942 90.2914C58.8275 90.2914 47.0409 104 29.7075 104C16.2246 104 6.30754 96.2812 2.56694 92.8519C1.47708 91.8528 0.934204 90.4254 0.934204 88.9468V6.99999Z" fill="#171717"/>
<path d="M0.934204 6.99999C0.934204 3.68629 3.6205 1 6.9342 1H98.9342C102.248 1 104.934 3.68629 104.934 7V88.22C104.934 92.3433 100.857 95.2941 96.8773 94.2146C90.2678 92.4216 80.7252 90.2914 72.6942 90.2914C58.8275 90.2914 47.0409 104 29.7075 104C16.2246 104 6.30754 96.2812 2.56694 92.8519C1.47708 91.8528 0.934204 90.4254 0.934204 88.9468V6.99999Z" stroke="#FAFAFA" stroke-width="1.6"/>
</g>
<path d="M15.7919 31.171C15.8429 31.154 15.8939 31.154 15.9619 31.154C16.1659 31.171 16.5059 31.188 16.9819 31.205C17.4749 31.222 17.8829 31.239 18.2059 31.273C18.5459 31.29 18.9199 31.358 19.3619 31.426C19.7869 31.511 20.1949 31.647 20.6029 31.817C20.9939 32.004 21.3679 32.225 21.7079 32.497C22.2519 32.973 22.6429 33.602 22.8469 34.316C23.0679 35.081 23.1699 35.897 23.1359 36.696C23.1019 37.512 22.9489 38.311 22.6599 39.076C22.4389 39.756 22.0309 40.368 21.4869 40.844C20.7559 41.439 19.8379 41.745 18.9199 41.915C18.2229 42.068 17.5089 42.119 16.7949 42.051C16.4209 42.017 14.9929 41.966 15.0269 41.388C15.0269 41.082 14.9759 32.446 14.9589 31.902C14.9419 31.715 15.0099 31.528 15.1459 31.392C15.2649 31.239 15.4519 31.154 15.6389 31.154C15.6899 31.154 15.7409 31.154 15.7919 31.171ZM16.4379 32.633C16.4549 32.939 16.5059 40.555 16.5059 40.555C16.9819 40.708 18.4269 40.555 18.5459 40.538C19.4299 40.385 20.1099 40.13 20.5689 39.739C20.9259 39.399 21.1979 38.974 21.3509 38.498C21.5719 37.903 21.6909 37.274 21.7079 36.645C21.7419 36.016 21.6739 35.404 21.5039 34.809C21.3849 34.35 21.1299 33.942 20.7899 33.619C20.5859 33.466 20.3819 33.313 20.1439 33.211C19.9059 33.092 19.7189 33.007 19.5489 32.939C19.3109 32.871 19.0559 32.803 18.8009 32.786C18.4779 32.735 18.2399 32.718 18.1039 32.701C17.9679 32.701 17.6789 32.684 17.2539 32.667C16.8289 32.65 16.5569 32.633 16.4379 32.633ZM30.2254 34.707C30.6334 35.115 30.9564 35.591 31.1604 36.135C31.3644 36.662 31.4664 37.206 31.4664 37.767C31.4494 38.311 31.3644 38.855 31.1944 39.365C30.9564 40.062 30.5314 40.691 29.9704 41.167C29.4094 41.643 28.7124 41.915 27.9814 41.949C27.8964 41.983 27.8114 42.017 27.7094 42C27.6584 42 27.6074 42 27.5564 41.983C27.4374 41.966 27.3014 41.949 27.1824 41.898C27.1484 41.898 27.1144 41.898 27.0634 41.881C26.1114 41.626 25.2954 40.98 24.8194 40.113C24.3434 39.246 24.2414 38.243 24.5134 37.155C24.6324 36.679 24.8194 36.203 25.0914 35.778C25.3464 35.353 25.6694 34.962 26.0434 34.639C26.8594 33.925 27.9814 33.67 29.0354 33.925C29.1884 33.959 29.3414 34.01 29.4944 34.095C29.5964 34.146 29.6984 34.197 29.7834 34.282C29.8514 34.316 29.9364 34.401 30.0384 34.52L30.2254 34.707ZM29.8684 38.906C30.0724 38.362 30.1234 37.767 30.0044 37.189C29.9024 36.628 29.6474 36.118 29.2394 35.71L29.2224 35.693C29.1714 35.642 29.1204 35.591 29.0694 35.54L29.0354 35.506L28.9334 35.387C28.9164 35.37 28.8994 35.353 28.8654 35.336C28.8654 35.336 28.8484 35.319 28.8314 35.319L28.7124 35.285C28.1004 35.132 27.4544 35.285 26.9614 35.71C26.4174 36.152 26.0264 36.798 25.8734 37.495C25.6864 38.141 25.7374 38.838 26.0434 39.45C26.3494 39.994 26.8594 40.385 27.4544 40.538C27.9814 40.623 28.5084 40.487 28.9504 40.181C29.3754 39.875 29.6984 39.416 29.8684 38.906ZM38.2902 38.192C38.4772 38.209 38.6472 38.277 38.7832 38.413C38.9022 38.549 38.9702 38.736 38.9532 38.923C38.9192 39.331 38.8172 39.722 38.6472 40.096C38.4602 40.47 38.2222 40.827 37.9332 41.116C37.6102 41.439 37.2192 41.66 36.7942 41.779C36.5562 41.847 36.3182 41.898 36.0632 41.898C35.8422 41.881 35.6042 41.864 35.3832 41.796C34.7032 41.643 34.0912 41.184 33.5642 40.436C33.1562 39.875 32.8672 39.229 32.7142 38.532C32.6292 38.158 32.5952 37.767 32.6462 37.376C32.6802 36.968 32.7652 36.56 32.8672 36.169C32.9862 35.744 33.1902 35.353 33.4452 35.013C33.7002 34.656 34.0232 34.367 34.3972 34.146C34.4822 34.095 34.5842 34.061 34.6692 34.027C34.7712 33.993 34.8562 33.976 34.9242 33.959C35.0092 33.942 35.0942 33.925 35.1792 33.908C35.2812 33.908 35.3492 33.908 35.4002 33.908C35.4512 33.908 35.5192 33.908 35.6042 33.908C35.6722 33.908 35.7232 33.908 35.7402 33.908C36.6242 33.925 37.3212 34.112 37.8312 34.469C38.3582 34.843 38.7492 35.455 38.9532 36.288C38.9872 36.458 38.9532 36.645 38.8682 36.798C38.7662 36.968 38.6132 37.087 38.4262 37.121C38.2562 37.155 38.0692 37.138 37.9162 37.036C37.7462 36.951 37.6272 36.798 37.5932 36.611C37.4572 36.118 37.2532 35.761 36.9982 35.574C36.7432 35.387 36.3182 35.285 35.7402 35.285C35.5872 35.268 35.4342 35.268 35.2982 35.285C35.2132 35.285 35.1452 35.302 35.0772 35.336C34.7032 35.557 34.3972 35.965 34.2102 36.543C34.0232 37.087 33.9722 37.682 34.0742 38.26C34.1932 38.753 34.4142 39.229 34.7202 39.654C35.0432 40.113 35.3832 40.402 35.7232 40.47C36.1482 40.589 36.6242 40.47 36.9302 40.147C37.3042 39.807 37.5252 39.331 37.5592 38.821C37.5592 38.651 37.6442 38.481 37.7972 38.362C37.9332 38.243 38.1202 38.175 38.2902 38.192ZM46.9133 35.863C46.9133 36.475 46.9303 37.223 46.9643 38.447C47.0153 39.688 47.0323 40.623 47.0323 41.235C47.0323 41.609 46.7093 41.932 46.3353 41.932C45.9443 41.932 45.6383 41.609 45.6383 41.235V41.133C45.2133 41.49 44.7033 41.762 44.1593 41.898C43.9213 41.966 43.6663 42 43.4113 42C43.1053 42.017 42.7993 41.949 42.5103 41.847C41.9493 41.626 41.5073 41.184 41.2693 40.623C40.9293 39.892 40.7593 38.957 40.7423 37.495C40.7423 37.07 40.7423 36.475 40.7763 35.761C40.7933 35.013 40.8103 34.724 40.8103 34.486C40.7933 34.231 40.9293 34.01 41.1503 33.874C41.3713 33.755 41.6433 33.755 41.8643 33.874C42.0683 34.01 42.2043 34.231 42.2043 34.486C42.2043 34.724 42.1873 35.03 42.1703 35.761C42.1363 36.475 42.1363 37.053 42.1363 37.478C42.1533 38.736 42.2893 39.467 42.5443 40.028C42.7823 40.555 43.1903 40.725 43.8023 40.555C44.1253 40.47 44.4313 40.317 44.6863 40.096C44.9413 39.892 45.1623 39.654 45.3153 39.365C45.4173 39.144 45.4853 38.906 45.5023 38.668C45.5363 38.498 45.5533 38.328 45.5533 38.175C45.5533 38.005 45.5363 37.682 45.4853 37.206C45.4513 36.73 45.4343 36.441 45.4173 36.339C45.3833 35.965 45.3663 35.591 45.3663 35.251C45.3493 35.081 45.3493 34.911 45.3663 34.741C45.3663 34.639 45.3833 34.537 45.3833 34.469C45.4343 34.061 45.8083 33.789 46.1993 33.823C46.4033 33.84 46.5903 33.959 46.7093 34.129L46.7263 34.163L46.7943 34.316L46.8283 34.452C46.8283 34.52 46.8453 34.588 46.8623 34.656C46.8623 34.775 46.8793 34.945 46.8793 35.2C46.9133 35.608 46.9133 35.71 46.9133 35.863ZM58.8651 35.914C59.0181 36.577 59.0861 37.24 59.0861 37.92C59.0861 38.413 59.0521 38.906 59.0011 39.739C58.9671 40.538 58.9331 41.048 58.9331 41.235C58.9331 41.609 58.6271 41.932 58.2361 41.932C57.8451 41.932 57.5391 41.609 57.5391 41.235C57.5391 41.014 57.5561 40.487 57.6071 39.654C57.6581 38.821 57.6751 38.362 57.6751 37.937C57.6921 37.359 57.6241 36.798 57.5051 36.254C57.4031 35.829 57.2671 35.557 57.0801 35.421C56.8591 35.251 56.5531 35.234 56.1621 35.37C55.4651 35.608 55.0401 36.118 54.8871 36.9L54.8191 37.24C54.8531 37.529 54.8531 37.903 54.8701 38.362C54.8871 38.821 54.8871 39.076 54.8871 39.144V40.81C54.8871 40.827 54.8871 40.861 54.8871 40.878L54.9041 40.912V41.133L54.8871 41.167C54.8871 41.269 54.8531 41.354 54.8021 41.422C54.7171 41.626 54.5301 41.762 54.3091 41.796C54.0541 41.847 53.7821 41.745 53.6291 41.524C53.5611 41.439 53.5101 41.337 53.4931 41.235C53.4931 41.201 53.4931 41.167 53.4931 41.15C53.4591 40.827 53.4421 40.521 53.4591 40.215C53.4761 40.011 53.4761 39.807 53.4761 39.62C53.3911 38.821 53.3911 38.005 53.4251 37.206C53.4081 37.036 53.3911 36.866 53.3571 36.696C53.2381 35.897 52.9831 35.455 52.6091 35.37C52.4391 35.353 52.2521 35.353 52.0821 35.37C52.0141 35.387 51.9631 35.404 51.8951 35.438C51.8271 35.489 51.7421 35.54 51.6911 35.574C51.6231 35.625 51.5721 35.676 51.5211 35.744C51.4701 35.812 51.4021 35.88 51.3511 35.965C51.3001 36.033 51.2491 36.135 51.1811 36.254C51.1131 36.373 51.0451 36.475 51.0111 36.56L50.8241 36.9C50.8071 36.934 50.8071 36.951 50.7901 37.002C50.7561 37.07 50.7391 37.138 50.7051 37.172C50.5351 37.546 50.4671 37.971 50.4841 38.379C50.4841 38.872 50.4841 39.229 50.4841 39.467C50.4841 39.705 50.5011 39.841 50.5011 40.215C50.5181 40.589 50.5521 40.946 50.5691 41.252C50.5861 41.439 50.5351 41.626 50.3991 41.762C50.2801 41.915 50.1101 42 49.9231 42.017C49.9061 42.017 49.8891 42.017 49.8721 42.017C49.7021 42.017 49.5491 41.949 49.4131 41.847C49.2771 41.728 49.1921 41.558 49.1751 41.371C49.1411 40.895 49.1071 40.419 49.1071 39.96C49.0901 39.467 49.0901 39.076 49.0901 38.379C49.0731 37.699 49.0731 37.24 49.0731 36.985C49.0731 36.883 49.0731 36.645 49.0561 36.271C49.0561 35.914 49.0391 35.625 49.0391 35.421V35.404C49.0391 35.37 49.0221 35.319 49.0221 35.285C49.0221 35.234 49.0221 35.2 49.0051 35.166V35.132C48.9881 35.03 48.9881 34.911 49.0051 34.792C49.0391 34.537 49.2431 34.299 49.4981 34.231C49.7701 34.146 50.0421 34.231 50.2291 34.418C50.3481 34.537 50.4331 34.673 50.4671 34.843C51.0451 34.129 51.9801 33.806 52.8811 34.027C53.4591 34.129 53.9691 34.503 54.2581 35.013C54.6491 34.571 55.1421 34.231 55.7031 34.061C56.5531 33.755 57.2841 33.84 57.8961 34.282C58.3551 34.622 58.6781 35.166 58.8651 35.914ZM67.1498 36.951C67.1498 37.087 67.1668 37.206 67.1838 37.291V37.325V37.495C67.1668 37.597 67.1498 37.699 67.1158 37.801C66.9798 38.124 66.7078 38.396 66.3678 38.515C66.0448 38.617 65.7048 38.651 65.3478 38.634C65.0248 38.651 64.5658 38.651 63.9878 38.651L63.1208 38.634L62.2538 38.6C62.1518 38.6 62.0668 38.6 61.9818 38.6C62.0328 38.94 62.1348 39.263 62.2878 39.552C62.4578 39.892 62.7128 40.198 63.0358 40.419C63.2568 40.538 63.4778 40.606 63.7158 40.606C64.0048 40.623 64.2938 40.589 64.5658 40.487C64.8378 40.402 65.0758 40.266 65.2798 40.062C65.5348 39.824 65.6878 39.382 65.9768 39.212C66.1468 39.11 66.3338 39.076 66.5208 39.127C66.6908 39.178 66.8438 39.297 66.9288 39.45C67.0308 39.62 67.0648 39.807 67.0138 39.994C66.8778 40.47 66.6228 40.725 66.2658 41.065C65.9088 41.388 65.4838 41.643 65.0418 41.813C64.6848 41.932 64.3278 42 63.9538 42C63.8518 42.017 63.7498 42 63.6478 42C63.1548 41.983 62.6958 41.83 62.2878 41.575C61.6418 41.15 61.1488 40.538 60.8598 39.824C60.5708 39.11 60.4688 38.328 60.5538 37.563C60.6388 36.832 60.8938 36.135 61.3018 35.54C61.6588 35.03 62.1518 34.639 62.7128 34.418C63.2568 34.197 63.8518 34.112 64.4298 34.18C65.0248 34.248 65.5858 34.486 66.0448 34.86C66.5378 35.251 66.8948 35.778 67.0478 36.39C67.0818 36.577 67.1158 36.764 67.1498 36.951ZM65.7558 37.223C65.7558 37.189 65.7558 37.172 65.7558 37.138C65.7218 36.934 65.7048 36.815 65.6878 36.747C65.6028 36.424 65.4158 36.152 65.1608 35.948C64.9058 35.744 64.5828 35.608 64.2598 35.574C63.9198 35.523 63.5798 35.574 63.2568 35.693C62.9338 35.812 62.6618 36.033 62.4578 36.322C62.2878 36.594 62.1518 36.883 62.0668 37.206C62.2538 37.206 62.5088 37.206 62.8318 37.223C63.3588 37.24 63.7498 37.24 64.0218 37.257C64.5658 37.257 64.9908 37.257 65.3138 37.24C65.5518 37.24 65.6878 37.223 65.7558 37.223ZM74.3718 35.183C74.6268 35.506 74.7798 35.999 74.8648 36.645C74.9328 37.223 74.9498 37.818 74.9158 38.396C74.9158 38.668 74.8818 39.229 74.8308 40.113C74.7968 40.759 74.7798 41.014 74.7798 41.218C74.7798 41.609 74.4738 41.915 74.0828 41.915C73.6918 41.915 73.3858 41.609 73.3858 41.218C73.3858 40.997 73.4028 40.708 73.4368 40.028L73.5218 38.345C73.5558 37.835 73.5388 37.325 73.4708 36.815C73.4028 36.305 73.3008 36.084 73.2328 35.982C72.9948 35.659 72.6038 35.54 72.0428 35.659C71.7878 35.71 71.5328 35.812 71.3118 35.965C71.1078 36.084 70.9548 36.254 70.8358 36.458C70.5978 36.9 70.4448 37.886 70.3938 39.365C70.3938 39.586 70.3938 39.518 70.3768 39.875C70.3768 40.232 70.3768 40.3 70.3768 40.436C70.3598 40.708 70.3427 40.895 70.3258 41.048C70.3088 41.252 70.2578 41.456 70.1558 41.626C70.1218 41.694 70.0708 41.762 70.0028 41.813C69.8668 41.932 69.6968 42 69.5268 42C69.2888 42.017 69.0508 41.898 68.9318 41.677C68.8638 41.609 68.8298 41.524 68.8128 41.422C68.7788 41.269 68.7618 41.116 68.7788 40.946C68.7958 40.283 68.7618 39.807 68.7618 39.127C68.7618 38.77 68.7788 38.26 68.8128 37.631C68.8468 37.019 68.8638 36.458 68.8638 35.982C68.8638 35.557 68.8298 35.149 68.7448 34.741C68.7108 34.571 68.7618 34.384 68.8638 34.231C68.9828 34.078 69.1358 33.976 69.3228 33.942C69.5098 33.908 69.6968 33.959 69.8498 34.061C70.0028 34.18 70.1048 34.333 70.1388 34.52C70.1558 34.707 70.1898 34.826 70.2068 35.047C70.6488 34.656 71.1928 34.401 71.7708 34.282C72.2468 34.18 72.7228 34.197 73.1988 34.333C73.6748 34.469 74.0998 34.775 74.3718 35.183ZM80.2341 35.319C80.1151 35.455 79.9281 35.523 79.7411 35.523C79.4691 35.523 79.1121 35.506 78.6701 35.506C78.7041 36.645 78.7721 37.767 78.9251 38.889C78.9251 38.957 78.9421 39.042 78.9421 39.144C78.9421 39.229 78.9591 39.331 78.9591 39.433C78.9591 39.552 78.9591 39.637 78.9591 39.688C78.9761 39.858 79.0101 40.045 79.0441 40.215C79.0781 40.317 79.1461 40.402 79.2141 40.453C79.3671 40.555 79.5371 40.623 79.7071 40.674C79.8941 40.725 80.0301 40.844 80.1151 41.014C80.2171 41.184 80.2341 41.371 80.1661 41.558C80.1151 41.728 79.9791 41.864 79.8261 41.949C79.7241 42 79.6221 42.034 79.5201 42.034C79.4351 42.034 79.3501 42.017 79.2821 41.983C78.9591 41.898 78.6361 41.745 78.3641 41.558C78.0581 41.337 77.8371 41.031 77.7351 40.674C77.6331 40.385 77.5821 40.079 77.5651 39.773C77.5651 39.722 77.5651 39.62 77.5481 39.45C77.5481 39.28 77.5311 39.144 77.5311 39.059C77.3781 37.716 77.2931 36.39 77.2761 35.472H76.7491C76.3581 35.472 76.0521 35.166 76.0521 34.775C76.0521 34.384 76.3581 34.078 76.7491 34.078H77.2931C77.3101 33.959 77.3101 33.772 77.3271 33.517C77.3611 33.041 77.3611 33.109 77.3611 33.092C77.3611 33.058 77.3441 32.939 77.3441 32.446C77.3271 32.259 77.3781 32.089 77.5141 31.936C77.6331 31.8 77.8031 31.715 77.9901 31.698C78.1601 31.681 78.3471 31.749 78.4831 31.868C78.6361 31.987 78.7211 32.157 78.7381 32.344C78.7381 32.854 78.7551 33.024 78.7551 33.058C78.7551 33.245 78.7381 33.432 78.7211 33.619C78.7041 33.857 78.7041 34.01 78.7041 34.112C79.1121 34.112 79.4691 34.112 79.7411 34.112C80.0301 34.112 80.2851 34.282 80.3871 34.554C80.5061 34.809 80.4381 35.115 80.2341 35.319ZM86.7232 37.954C87.3862 38.481 87.6242 39.195 87.4372 40.096C87.3012 40.725 86.9272 41.286 86.3662 41.626C85.8732 41.932 85.3122 42.085 84.7512 42.085C84.7002 42.085 84.6322 42.085 84.5812 42.068C83.9692 42.051 83.3742 41.864 82.8472 41.541C82.3202 41.235 81.9292 40.742 81.7252 40.164C81.6572 39.994 81.6572 39.807 81.7422 39.637C81.8272 39.467 81.9802 39.331 82.1502 39.28C82.3202 39.212 82.5242 39.229 82.6942 39.314C82.8642 39.382 82.9832 39.535 83.0342 39.722C83.1532 39.994 83.3402 40.232 83.6122 40.368C83.9182 40.555 84.2752 40.674 84.6492 40.674C84.9722 40.708 85.3122 40.623 85.6012 40.47C85.8392 40.317 86.0092 40.062 86.0772 39.79C86.1622 39.348 85.9922 39.161 85.8562 39.059C85.7032 38.923 85.3462 38.719 84.4962 38.481C83.5272 38.226 82.9322 38.005 82.6432 37.852C81.8782 37.427 81.5212 36.832 81.5722 36.05C81.6062 35.472 81.8952 34.945 82.3712 34.622C82.8302 34.282 83.3742 34.061 83.9352 33.976C84.4962 33.891 85.0742 33.925 85.6182 34.061C86.1452 34.18 86.6042 34.503 86.8762 34.962C87.0122 35.2 87.0972 35.438 87.1482 35.693C87.1822 35.88 87.2672 36.152 87.2162 36.339C87.1482 36.645 86.6892 36.781 86.4002 36.747C86.1622 36.713 85.9582 36.56 85.8392 36.356C85.7372 36.135 85.8222 35.863 85.6692 35.659C85.5672 35.506 85.4142 35.404 85.2442 35.37C84.8872 35.285 84.5132 35.285 84.1562 35.37C83.8332 35.387 83.5272 35.506 83.2722 35.693C83.1022 35.795 83.0002 35.965 82.9662 36.152C82.9492 36.271 82.9832 36.458 83.3232 36.628C83.4592 36.713 83.8502 36.866 84.8702 37.155C85.7542 37.41 86.3492 37.665 86.7232 37.954ZM23.4109 60.929C23.5129 61.099 23.5299 61.303 23.4619 61.49C23.3939 61.677 23.2749 61.83 23.0879 61.932C23.0029 61.983 22.8839 62 22.7649 62C22.6799 62 22.6119 62 22.5269 61.966C22.2039 61.864 21.8809 61.405 21.6429 61.065C21.6089 61.014 21.5749 60.98 21.5579 60.929C21.2179 61.269 20.7929 61.524 20.3169 61.626L20.2659 61.643C19.6369 61.762 18.5829 61.966 17.8009 61.592C16.6789 61.065 15.9649 59.994 15.7949 58.6C15.6929 57.835 15.8969 56.713 16.5599 56.084C16.6449 55.999 16.7469 55.931 16.8489 55.863C17.2229 55.591 17.7839 55.2 17.5799 54.843C16.7469 53.5 16.7129 52.429 17.4269 51.664C17.8009 51.273 18.2599 50.967 18.7699 50.797C19.0759 50.695 19.3989 50.627 19.7389 50.593C20.0789 50.576 20.4359 50.61 20.7589 50.712C21.5239 50.899 22.0679 51.579 22.0849 52.361C22.1869 53.194 21.8299 53.959 21.0819 54.656C20.6399 55.03 20.1639 55.353 19.6539 55.642C20.0109 56.237 20.3849 56.798 20.8099 57.342L21.3709 58.005C21.6939 57.274 21.8979 56.815 21.9829 56.645C22.0679 56.458 22.2209 56.339 22.4079 56.271C22.5949 56.203 22.7989 56.22 22.9859 56.322C23.1559 56.407 23.2919 56.56 23.3429 56.747C23.4109 56.934 23.3939 57.138 23.3089 57.325C23.2749 57.41 23.2409 57.512 23.2069 57.614C23.0539 58.124 22.8669 58.634 22.6629 59.127L22.4249 59.637C22.5949 59.841 22.7139 59.994 22.8329 60.13C23.0709 60.368 23.2579 60.64 23.4109 60.929ZM20.4699 59.858C20.5379 59.671 20.4019 59.484 20.2489 59.314C19.7389 58.668 19.2799 57.988 18.8889 57.274C18.7189 56.985 18.5659 56.713 18.3959 56.458C17.9029 56.713 17.5289 57.155 17.3759 57.682C17.1719 58.277 17.2229 58.923 17.5119 59.467C17.6819 59.79 17.9879 60.198 18.4299 60.351C18.7189 60.419 18.9909 60.419 19.2799 60.368C19.5519 60.317 19.8069 60.249 20.0789 60.164C20.2319 60.113 20.4189 60.028 20.4699 59.858ZM20.0789 53.551C20.4699 53.194 20.6569 52.854 20.6059 52.514L20.5719 52.242C20.4359 52.14 20.2829 52.089 20.1129 52.089C19.8239 52.072 19.5349 52.106 19.2629 52.208C19.0079 52.276 18.7699 52.412 18.5829 52.599C18.4639 52.718 18.3959 52.871 18.3789 53.041C18.4129 53.262 18.4809 53.483 18.5999 53.67C18.6169 53.738 18.6509 53.789 18.6679 53.857C18.7019 53.993 18.7699 54.129 18.8719 54.231C18.8889 54.248 18.9229 54.265 18.9569 54.282C19.2629 54.35 19.7389 53.908 19.9769 53.653C20.0279 53.619 20.0619 53.585 20.0789 53.551ZM31.1732 51.171C31.2242 51.154 31.2752 51.154 31.3432 51.154C31.5472 51.171 31.8872 51.188 32.3632 51.205C32.8562 51.222 33.2642 51.239 33.5872 51.273C33.9272 51.29 34.3012 51.358 34.7432 51.426C35.1682 51.511 35.5762 51.647 35.9842 51.817C36.3752 52.004 36.7492 52.225 37.0892 52.497C37.6332 52.973 38.0242 53.602 38.2282 54.316C38.4492 55.081 38.5512 55.897 38.5172 56.696C38.4832 57.512 38.3302 58.311 38.0412 59.076C37.8202 59.756 37.4122 60.368 36.8682 60.844C36.1372 61.439 35.2192 61.745 34.3012 61.915C33.6042 62.068 32.8902 62.119 32.1762 62.051C31.8022 62.017 30.3742 61.966 30.4082 61.388C30.4082 61.082 30.3572 52.446 30.3402 51.902C30.3232 51.715 30.3912 51.528 30.5272 51.392C30.6462 51.239 30.8332 51.154 31.0202 51.154C31.0712 51.154 31.1222 51.154 31.1732 51.171ZM31.8192 52.633C31.8362 52.939 31.8872 60.555 31.8872 60.555C32.3632 60.708 33.8082 60.555 33.9272 60.538C34.8112 60.385 35.4912 60.13 35.9502 59.739C36.3072 59.399 36.5792 58.974 36.7322 58.498C36.9532 57.903 37.0722 57.274 37.0892 56.645C37.1232 56.016 37.0552 55.404 36.8852 54.809C36.7662 54.35 36.5112 53.942 36.1712 53.619C35.9672 53.466 35.7632 53.313 35.5252 53.211C35.2872 53.092 35.1002 53.007 34.9302 52.939C34.6922 52.871 34.4372 52.803 34.1822 52.786C33.8592 52.735 33.6212 52.718 33.4852 52.701C33.3492 52.701 33.0602 52.684 32.6352 52.667C32.2102 52.65 31.9382 52.633 31.8192 52.633ZM41.5438 57.92C41.5778 59.484 41.5608 60.606 41.5268 61.269C41.5268 61.456 41.4418 61.626 41.3058 61.745C41.1698 61.864 41.0168 61.915 40.8468 61.915C40.8298 61.915 40.8128 61.915 40.7958 61.915C40.6088 61.915 40.4218 61.83 40.3028 61.694C40.1838 61.541 40.1158 61.371 40.1328 61.184C40.1668 60.572 40.1838 59.501 40.1498 57.954C40.1158 56.458 40.1328 55.336 40.1668 54.605C40.1668 54.418 40.2518 54.231 40.3878 54.112C40.5408 53.993 40.7278 53.925 40.8978 53.942C41.0848 53.959 41.2718 54.044 41.3908 54.18C41.5098 54.316 41.5778 54.503 41.5608 54.69C41.5268 55.387 41.5098 56.475 41.5438 57.92ZM40.7448 52.854C40.5578 52.854 40.3878 52.803 40.2688 52.667C39.9798 52.378 40.1158 51.885 40.1328 51.528C40.1328 51.341 40.2178 51.171 40.3538 51.035C40.4898 50.916 40.6598 50.848 40.8468 50.848C41.0338 50.848 41.2208 50.933 41.3398 51.069C41.4588 51.205 41.5268 51.375 41.5268 51.562C41.5268 51.902 41.5098 51.868 41.4928 52.191C41.4758 52.378 41.3908 52.565 41.2548 52.684C41.1188 52.803 40.9318 52.871 40.7448 52.854ZM50.6611 61.014C50.6951 61.184 50.6611 61.354 50.5591 61.49C50.4571 61.626 50.3211 61.711 50.1681 61.728C50.1511 61.745 50.1171 61.745 50.1001 61.762L49.9471 61.796C49.7771 61.847 49.5901 61.847 49.4031 61.813C48.9101 61.711 48.5701 61.354 48.3661 60.742C47.9411 61.218 47.3971 61.558 46.8021 61.762C46.4621 61.864 46.1221 61.915 45.7821 61.915C45.4591 61.915 45.1531 61.864 44.8471 61.779C44.4221 61.643 44.0311 61.405 43.7081 61.065C43.4191 60.742 43.2321 60.334 43.1641 59.892C43.1131 59.382 43.2321 58.889 43.4871 58.464C43.5551 58.345 43.6401 58.243 43.7081 58.141C43.8101 58.022 43.9121 57.937 44.0311 57.869C44.1331 57.801 44.2181 57.733 44.3031 57.682C44.4051 57.614 44.5411 57.563 44.6601 57.512C44.7961 57.478 44.8981 57.444 44.9491 57.41C45.0851 57.376 45.2041 57.342 45.3401 57.325C45.5441 57.291 45.6121 57.274 45.6291 57.274C45.7481 57.24 45.8671 57.223 45.9861 57.223L46.2581 57.172C46.6661 57.121 47.0741 57.036 47.4481 56.883C47.7031 56.781 47.9071 56.577 47.9921 56.305C48.0771 56.05 48.0431 55.778 47.9071 55.54C47.8221 55.37 47.6861 55.251 47.5331 55.166C47.3801 55.115 47.0401 55.064 46.2751 55.132C45.6971 55.183 44.9321 55.336 44.7791 55.999C44.7621 56.118 44.7451 56.22 44.7111 56.339C44.6091 56.662 44.2691 56.866 43.9461 56.798C43.7761 56.747 43.6401 56.662 43.5381 56.509C43.4361 56.373 43.4021 56.203 43.4531 56.033C43.5891 55.098 44.2521 54.316 45.1701 54.044C45.4931 53.942 45.8161 53.891 46.1561 53.891C46.9551 53.806 47.5501 53.84 47.9581 53.976C48.4171 54.146 48.7911 54.469 49.0121 54.877C49.2331 55.217 49.3691 55.778 49.4201 56.577C49.4201 56.645 49.4201 57.376 49.4371 58.549C49.4371 59.093 49.4711 59.654 49.5731 60.198C49.5901 60.317 49.6241 60.436 49.6751 60.538C49.6921 60.538 49.7091 60.538 49.7261 60.538C49.7941 60.504 49.8621 60.504 49.9301 60.504C50.0831 60.47 50.2701 60.504 50.4061 60.606C50.5421 60.691 50.6441 60.844 50.6611 61.014ZM48.1451 58.685C48.1451 58.617 48.1451 58.549 48.1451 58.481C48.1451 58.362 48.0771 58.26 47.9921 58.192C47.8901 58.141 47.7881 58.124 47.6691 58.158C47.2781 58.277 46.8701 58.379 46.4451 58.43C46.0371 58.498 45.7141 58.549 45.5271 58.583C45.3401 58.617 45.1531 58.685 44.9831 58.77C44.8301 58.838 44.7111 58.94 44.6261 59.076C44.4391 59.416 44.5751 59.705 44.7111 59.977C44.8301 60.249 44.8981 60.453 45.2721 60.572C45.7141 60.691 46.1901 60.657 46.6151 60.453C47.1251 60.249 47.5161 59.824 47.8391 59.382C47.9411 59.246 48.0091 59.11 48.0771 58.957C48.1111 58.872 48.1281 58.787 48.1451 58.685ZM58.0419 54.299C58.3989 56.543 58.2289 58.957 58.0589 61.218C57.9909 62.119 57.8889 62.867 57.7529 63.173C57.5149 63.7 57.1579 64.159 56.6819 64.482C56.4779 64.669 56.2569 64.822 56.0019 64.924C55.7469 65.043 55.4749 65.094 55.2029 65.094C54.9309 65.094 54.6759 65.06 54.4209 64.958H54.3869C54.0979 64.873 53.8089 64.754 53.5709 64.584C53.2989 64.431 53.0439 64.244 52.8059 64.04C52.7209 63.955 52.6019 63.853 52.4829 63.717C52.3129 63.547 52.1599 63.377 52.0409 63.173C51.6839 62.68 51.7349 62.136 52.3639 61.966C52.5339 61.915 52.6869 61.949 52.8399 62.034L52.8739 62.051L53.0099 62.17C53.0609 62.204 53.0949 62.238 53.1289 62.289L53.2309 62.425L53.4859 62.748C53.5539 62.799 53.7409 62.935 54.2169 63.275C54.3869 63.411 54.5909 63.53 54.7949 63.615C55.1349 63.666 55.4919 63.598 55.7809 63.394C56.0189 63.122 56.1889 62.799 56.3079 62.442C56.4439 62.102 56.7839 61.201 56.2059 61.371C55.7639 61.507 55.3899 61.813 54.9309 61.864C54.4039 61.949 53.8769 61.847 53.4179 61.609C52.6699 61.218 52.1259 60.504 51.8029 59.501C51.6669 59.127 51.5819 58.736 51.5649 58.328C51.5479 57.818 51.5649 57.291 51.6669 56.764C51.7519 56.305 51.9219 55.846 52.1769 55.438C52.4319 55.047 52.7549 54.707 53.1629 54.452C54.2849 53.806 55.6789 53.908 56.6989 54.707C56.6989 54.639 56.6819 54.588 56.6819 54.537C56.6309 54.35 56.6819 54.163 56.7839 54.01C56.8859 53.857 57.0559 53.755 57.2429 53.721C57.4129 53.687 57.5999 53.738 57.7529 53.84C57.9059 53.942 58.0079 54.112 58.0419 54.299ZM56.4609 59.144C56.7329 58.396 56.5799 57.495 56.3419 56.713C56.0869 55.931 55.6449 55.506 54.9309 55.438C54.8629 55.438 54.7779 55.438 54.6929 55.438C54.4039 55.421 54.1319 55.489 53.8769 55.642C53.4519 55.897 53.1799 56.373 53.0269 57.053C52.8739 57.716 52.9079 58.413 53.1289 59.076C53.3329 59.722 53.6559 60.164 54.0469 60.368C54.4889 60.589 55.0159 60.504 55.6449 60.13C56.0189 59.909 56.3079 59.569 56.4609 59.144ZM64.269 54.741C64.303 54.928 64.269 55.115 64.15 55.268C64.048 55.421 63.878 55.523 63.708 55.557C63.266 55.642 62.586 55.761 62.382 55.948C62.161 56.135 62.008 56.39 61.923 56.662C61.855 56.866 61.804 57.087 61.77 57.308C61.753 57.648 61.736 57.971 61.753 58.311C61.753 58.634 61.753 58.94 61.753 59.263C61.77 59.841 61.736 60.419 61.651 60.997C61.634 61.116 61.617 61.201 61.617 61.269L61.6 61.303C61.583 61.371 61.566 61.422 61.532 61.473C61.515 61.541 61.481 61.592 61.447 61.643C61.311 61.813 61.107 61.898 60.886 61.898C60.648 61.915 60.427 61.796 60.291 61.592C60.257 61.524 60.223 61.456 60.206 61.371C60.206 61.354 60.189 61.303 60.172 61.252C60.172 61.167 60.155 61.099 60.155 61.014C60.155 60.912 60.155 60.742 60.155 60.521V59.722C60.155 59.416 60.138 58.889 60.121 58.141C60.104 57.376 60.104 56.713 60.121 56.152C60.121 55.608 60.155 55.064 60.189 54.537C60.206 54.35 60.291 54.18 60.427 54.061C60.58 53.942 60.75 53.891 60.937 53.891C61.124 53.908 61.294 53.993 61.413 54.146C61.532 54.282 61.6 54.469 61.583 54.656C61.583 54.758 61.566 54.86 61.566 54.945C61.889 54.605 62.331 54.367 62.807 54.282C63.164 54.197 63.674 54.061 63.98 54.299C64.133 54.401 64.235 54.571 64.269 54.741ZM72.7079 61.014C72.7419 61.184 72.7079 61.354 72.6059 61.49C72.5039 61.626 72.3679 61.711 72.2149 61.728C72.1979 61.745 72.1639 61.745 72.1469 61.762L71.9939 61.796C71.8239 61.847 71.6369 61.847 71.4499 61.813C70.9569 61.711 70.6169 61.354 70.4129 60.742C69.9879 61.218 69.4439 61.558 68.8489 61.762C68.5089 61.864 68.1689 61.915 67.8289 61.915C67.5059 61.915 67.1999 61.864 66.8939 61.779C66.4689 61.643 66.0779 61.405 65.7549 61.065C65.4659 60.742 65.2789 60.334 65.2109 59.892C65.1599 59.382 65.2789 58.889 65.5339 58.464C65.6019 58.345 65.6869 58.243 65.7549 58.141C65.8569 58.022 65.9589 57.937 66.0779 57.869C66.1799 57.801 66.2649 57.733 66.3499 57.682C66.4519 57.614 66.5879 57.563 66.7069 57.512C66.8429 57.478 66.9449 57.444 66.9959 57.41C67.1319 57.376 67.2509 57.342 67.3869 57.325C67.5909 57.291 67.6589 57.274 67.6759 57.274C67.7949 57.24 67.9139 57.223 68.0329 57.223L68.3049 57.172C68.7129 57.121 69.1209 57.036 69.4949 56.883C69.7499 56.781 69.9539 56.577 70.0389 56.305C70.1239 56.05 70.0899 55.778 69.9539 55.54C69.8689 55.37 69.7329 55.251 69.5799 55.166C69.4269 55.115 69.0869 55.064 68.3219 55.132C67.7439 55.183 66.9789 55.336 66.8259 55.999C66.8089 56.118 66.7919 56.22 66.7579 56.339C66.6559 56.662 66.3159 56.866 65.9929 56.798C65.8229 56.747 65.6869 56.662 65.5849 56.509C65.4829 56.373 65.4489 56.203 65.4999 56.033C65.6359 55.098 66.2989 54.316 67.2169 54.044C67.5399 53.942 67.8629 53.891 68.2029 53.891C69.0019 53.806 69.5969 53.84 70.0049 53.976C70.4639 54.146 70.8379 54.469 71.0589 54.877C71.2799 55.217 71.4159 55.778 71.4669 56.577C71.4669 56.645 71.4669 57.376 71.4839 58.549C71.4839 59.093 71.5179 59.654 71.6199 60.198C71.6369 60.317 71.6709 60.436 71.7219 60.538C71.7389 60.538 71.7559 60.538 71.7729 60.538C71.8409 60.504 71.9089 60.504 71.9769 60.504C72.1299 60.47 72.3169 60.504 72.4529 60.606C72.5889 60.691 72.6909 60.844 72.7079 61.014ZM70.1919 58.685C70.1919 58.617 70.1919 58.549 70.1919 58.481C70.1919 58.362 70.1239 58.26 70.0389 58.192C69.9369 58.141 69.8349 58.124 69.7159 58.158C69.3249 58.277 68.9169 58.379 68.4919 58.43C68.0839 58.498 67.7609 58.549 67.5739 58.583C67.3869 58.617 67.1999 58.685 67.0299 58.77C66.8769 58.838 66.7579 58.94 66.6729 59.076C66.4859 59.416 66.6219 59.705 66.7579 59.977C66.8769 60.249 66.9449 60.453 67.3189 60.572C67.7609 60.691 68.2369 60.657 68.6619 60.453C69.1719 60.249 69.5629 59.824 69.8859 59.382C69.9879 59.246 70.0559 59.11 70.1239 58.957C70.1579 58.872 70.1749 58.787 70.1919 58.685ZM83.8089 55.914C83.9619 56.577 84.0299 57.24 84.0299 57.92C84.0299 58.413 83.9959 58.906 83.9449 59.739C83.9109 60.538 83.8769 61.048 83.8769 61.235C83.8769 61.609 83.5709 61.932 83.1799 61.932C82.7889 61.932 82.4829 61.609 82.4829 61.235C82.4829 61.014 82.4999 60.487 82.5509 59.654C82.6019 58.821 82.6189 58.362 82.6189 57.937C82.6359 57.359 82.5679 56.798 82.4489 56.254C82.3469 55.829 82.2109 55.557 82.0239 55.421C81.8029 55.251 81.4969 55.234 81.1059 55.37C80.4089 55.608 79.9839 56.118 79.8309 56.9L79.7629 57.24C79.7969 57.529 79.7969 57.903 79.8139 58.362C79.8309 58.821 79.8309 59.076 79.8309 59.144V60.81C79.8309 60.827 79.8309 60.861 79.8309 60.878L79.8479 60.912V61.133L79.8309 61.167C79.8309 61.269 79.7969 61.354 79.7459 61.422C79.6609 61.626 79.4739 61.762 79.2529 61.796C78.9979 61.847 78.7259 61.745 78.5729 61.524C78.5049 61.439 78.4539 61.337 78.4369 61.235C78.4369 61.201 78.4369 61.167 78.4369 61.15C78.4029 60.827 78.3859 60.521 78.4029 60.215C78.4199 60.011 78.4199 59.807 78.4199 59.62C78.3349 58.821 78.3349 58.005 78.3689 57.206C78.3519 57.036 78.3349 56.866 78.3009 56.696C78.1819 55.897 77.9269 55.455 77.5529 55.37C77.3829 55.353 77.1959 55.353 77.0259 55.37C76.9579 55.387 76.9069 55.404 76.8389 55.438C76.7709 55.489 76.6859 55.54 76.6349 55.574C76.5669 55.625 76.5159 55.676 76.4649 55.744C76.4139 55.812 76.3459 55.88 76.2949 55.965C76.2439 56.033 76.1929 56.135 76.1249 56.254C76.0569 56.373 75.9889 56.475 75.9549 56.56L75.7679 56.9C75.7509 56.934 75.7509 56.951 75.7339 57.002C75.6999 57.07 75.6829 57.138 75.6489 57.172C75.4789 57.546 75.4109 57.971 75.4279 58.379C75.4279 58.872 75.4279 59.229 75.4279 59.467C75.4279 59.705 75.4449 59.841 75.4449 60.215C75.4619 60.589 75.4959 60.946 75.5129 61.252C75.5299 61.439 75.4789 61.626 75.3429 61.762C75.2239 61.915 75.0539 62 74.8669 62.017C74.8499 62.017 74.8329 62.017 74.8159 62.017C74.6459 62.017 74.4929 61.949 74.3569 61.847C74.2209 61.728 74.1359 61.558 74.1189 61.371C74.0849 60.895 74.0509 60.419 74.0509 59.96C74.0339 59.467 74.0339 59.076 74.0339 58.379C74.0169 57.699 74.0169 57.24 74.0169 56.985C74.0169 56.883 74.0169 56.645 73.9999 56.271C73.9999 55.914 73.9829 55.625 73.9829 55.421V55.404C73.9829 55.37 73.9659 55.319 73.9659 55.285C73.9659 55.234 73.9659 55.2 73.9489 55.166V55.132C73.9319 55.03 73.9319 54.911 73.9489 54.792C73.9829 54.537 74.1869 54.299 74.4419 54.231C74.7139 54.146 74.9859 54.231 75.1729 54.418C75.2919 54.537 75.3769 54.673 75.4109 54.843C75.9889 54.129 76.9239 53.806 77.8249 54.027C78.4029 54.129 78.9129 54.503 79.2019 55.013C79.5929 54.571 80.0859 54.231 80.6469 54.061C81.4969 53.755 82.2279 53.84 82.8399 54.282C83.2989 54.622 83.6219 55.166 83.8089 55.914ZM90.6827 57.954C91.3457 58.481 91.5837 59.195 91.3967 60.096C91.2607 60.725 90.8867 61.286 90.3257 61.626C89.8327 61.932 89.2717 62.085 88.7107 62.085C88.6597 62.085 88.5917 62.085 88.5407 62.068C87.9287 62.051 87.3337 61.864 86.8067 61.541C86.2797 61.235 85.8887 60.742 85.6847 60.164C85.6167 59.994 85.6167 59.807 85.7017 59.637C85.7867 59.467 85.9397 59.331 86.1097 59.28C86.2797 59.212 86.4837 59.229 86.6537 59.314C86.8237 59.382 86.9427 59.535 86.9937 59.722C87.1127 59.994 87.2997 60.232 87.5717 60.368C87.8777 60.555 88.2347 60.674 88.6087 60.674C88.9317 60.708 89.2717 60.623 89.5607 60.47C89.7987 60.317 89.9687 60.062 90.0367 59.79C90.1217 59.348 89.9517 59.161 89.8157 59.059C89.6627 58.923 89.3057 58.719 88.4557 58.481C87.4867 58.226 86.8917 58.005 86.6027 57.852C85.8377 57.427 85.4807 56.832 85.5317 56.05C85.5657 55.472 85.8547 54.945 86.3307 54.622C86.7897 54.282 87.3337 54.061 87.8947 53.976C88.4557 53.891 89.0337 53.925 89.5777 54.061C90.1047 54.18 90.5637 54.503 90.8357 54.962C90.9717 55.2 91.0567 55.438 91.1077 55.693C91.1417 55.88 91.2267 56.152 91.1757 56.339C91.1077 56.645 90.6487 56.781 90.3597 56.747C90.1217 56.713 89.9177 56.56 89.7987 56.356C89.6967 56.135 89.7817 55.863 89.6287 55.659C89.5267 55.506 89.3737 55.404 89.2037 55.37C88.8467 55.285 88.4727 55.285 88.1157 55.37C87.7927 55.387 87.4867 55.506 87.2317 55.693C87.0617 55.795 86.9597 55.965 86.9257 56.152C86.9087 56.271 86.9427 56.458 87.2827 56.628C87.4187 56.713 87.8097 56.866 88.8297 57.155C89.7137 57.41 90.3087 57.665 90.6827 57.954Z" fill="#FAFAFA"/>
<defs>
<filter id="filter0_d_52_19215" x="0.134216" y="0.200195" width="108.6" height="107.6" filterUnits="userSpaceOnUse" color-interpolation-filters="sRGB">
<feFlood flood-opacity="0" result="BackgroundImageFix"/>
<feColorMatrix in="SourceAlpha" type="matrix" values="0 0 0 0 0 0 0 0 0 0 0 0 0 0 0 0 0 0 127 0" result="hardAlpha"/>
<feOffset dx="3" dy="3"/>
<feColorMatrix type="matrix" values="0 0 0 0 0.294118 0 0 0 0 0.294118 0 0 0 0 0.294118 0 0 0 1 0"/>
<feBlend mode="normal" in2="BackgroundImageFix" result="effect1_dropShadow_52_19215"/>
<feBlend mode="normal" in="SourceGraphic" in2="effect1_dropShadow_52_19215" result="shape"/>
</filter>
</defs>
</svg>
