<svg width="154" height="88" viewBox="0 0 154 88" fill="none" xmlns="http://www.w3.org/2000/svg">
<g clip-path="url(#clip0_52_21639)">
<path d="M136.647 9.04484C96.1956 9.42758 58.8955 9.06934 19.445 9.04484C12.7816 8.53052 8.53404 12.5132 9.0915 17.2679C9.5466 48.2954 9.51074 59.6289 9.0915 72.6856C8.28798 77.9461 12.8922 80.9134 19.445 80.9087C66.2677 80.9921 100.306 80.8994 136.647 80.9087C143.177 81.5602 146.437 78.7159 147 72.6856C146.623 56.3523 146.79 36.6615 147 17.2679C146.498 11.6562 144.328 8.64696 136.647 9.04484Z" fill="#171717" stroke="#FAFAFA" stroke-width="1.6"/>
<path d="M23.8227 40.103C24.2137 40.12 24.5197 40.358 24.7577 40.681C25.0977 41.123 25.3017 41.684 25.5057 42.041C26.4407 43.809 27.2397 45.662 27.8857 47.566C27.9197 47.668 27.9537 47.77 27.9877 47.872C28.0217 47.957 28.0897 47.991 28.1577 48.008C28.2427 48.008 28.3107 47.974 28.3447 47.889C29.0247 46.461 29.6367 44.999 30.2657 43.554C30.5377 42.908 31.4217 39.474 32.7647 40.545C32.9177 40.664 33.0197 40.834 33.0367 41.021C33.0707 41.412 33.1047 41.803 33.1217 42.228C33.1217 42.636 33.1387 43.129 33.1387 43.707C33.1387 44.268 33.1387 44.676 33.1387 44.897C33.1557 45.271 33.1727 46.087 33.2237 47.362C33.2577 48.62 33.2747 49.606 33.2747 50.286C33.2917 50.49 33.2067 50.677 33.0537 50.796C32.7477 51.085 32.2887 51.085 31.9827 50.796C31.8467 50.677 31.7617 50.49 31.7617 50.286C31.7617 49.606 31.7447 48.637 31.6937 47.379C31.6597 46.325 32.0507 44.03 31.7447 43.741C31.2857 44.965 28.8547 50.473 28.7867 50.592C28.7017 50.728 28.5827 50.83 28.4297 50.881C28.2427 50.966 28.0387 50.966 27.8517 50.898C27.6647 50.83 27.5117 50.694 27.4267 50.507C27.0357 49.691 26.7127 48.841 26.4237 47.974C26.0497 46.784 24.7747 43.962 24.5707 43.537C24.4687 43.35 24.4347 43.86 24.4347 44.064C24.4347 44.676 24.4347 45.56 24.4517 46.75C24.4687 48.637 24.4687 49.81 24.4687 50.235C24.4687 50.422 24.3837 50.609 24.2477 50.745C23.9417 51.017 23.4827 51.017 23.1767 50.745C23.0237 50.609 22.9387 50.422 22.9557 50.235C22.9557 49.691 22.9387 48.722 22.9217 47.311C22.9047 45.9 22.9047 44.693 22.9217 43.69C22.9217 42.704 22.9557 41.735 23.0067 40.783C23.0237 40.596 23.0917 40.426 23.2277 40.307C23.3977 40.171 23.6017 40.086 23.8227 40.103ZM42.3954 50.014C42.4294 50.184 42.3954 50.354 42.2934 50.49C42.1914 50.626 42.0554 50.711 41.9024 50.728C41.8854 50.745 41.8514 50.745 41.8344 50.762L41.6814 50.796C41.5114 50.847 41.3244 50.847 41.1374 50.813C40.6444 50.711 40.3044 50.354 40.1004 49.742C39.6754 50.218 39.1314 50.558 38.5364 50.762C38.1964 50.864 37.8564 50.915 37.5164 50.915C37.1934 50.915 36.8874 50.864 36.5814 50.779C36.1564 50.643 35.7654 50.405 35.4424 50.065C35.1534 49.742 34.9664 49.334 34.8984 48.892C34.8474 48.382 34.9664 47.889 35.2214 47.464C35.2894 47.345 35.3744 47.243 35.4424 47.141C35.5444 47.022 35.6464 46.937 35.7654 46.869C35.8674 46.801 35.9524 46.733 36.0374 46.682C36.1394 46.614 36.2754 46.563 36.3944 46.512C36.5304 46.478 36.6324 46.444 36.6834 46.41C36.8194 46.376 36.9384 46.342 37.0744 46.325C37.2784 46.291 37.3464 46.274 37.3634 46.274C37.4824 46.24 37.6014 46.223 37.7204 46.223L37.9924 46.172C38.4004 46.121 38.8084 46.036 39.1824 45.883C39.4374 45.781 39.6414 45.577 39.7264 45.305C39.8114 45.05 39.7774 44.778 39.6414 44.54C39.5564 44.37 39.4204 44.251 39.2674 44.166C39.1144 44.115 38.7744 44.064 38.0094 44.132C37.4314 44.183 36.6664 44.336 36.5134 44.999C36.4964 45.118 36.4794 45.22 36.4454 45.339C36.3434 45.662 36.0034 45.866 35.6804 45.798C35.5104 45.747 35.3744 45.662 35.2724 45.509C35.1704 45.373 35.1364 45.203 35.1874 45.033C35.3234 44.098 35.9864 43.316 36.9044 43.044C37.2274 42.942 37.5504 42.891 37.8904 42.891C38.6894 42.806 39.2844 42.84 39.6924 42.976C40.1514 43.146 40.5254 43.469 40.7464 43.877C40.9674 44.217 41.1034 44.778 41.1544 45.577C41.1544 45.645 41.1544 46.376 41.1714 47.549C41.1714 48.093 41.2054 48.654 41.3074 49.198C41.3244 49.317 41.3584 49.436 41.4094 49.538C41.4264 49.538 41.4434 49.538 41.4604 49.538C41.5284 49.504 41.5964 49.504 41.6644 49.504C41.8174 49.47 42.0044 49.504 42.1404 49.606C42.2764 49.691 42.3784 49.844 42.3954 50.014ZM39.8794 47.685C39.8794 47.617 39.8794 47.549 39.8794 47.481C39.8794 47.362 39.8114 47.26 39.7264 47.192C39.6244 47.141 39.5224 47.124 39.4034 47.158C39.0124 47.277 38.6044 47.379 38.1794 47.43C37.7714 47.498 37.4484 47.549 37.2614 47.583C37.0744 47.617 36.8874 47.685 36.7174 47.77C36.5644 47.838 36.4454 47.94 36.3604 48.076C36.1734 48.416 36.3094 48.705 36.4454 48.977C36.5644 49.249 36.6324 49.453 37.0064 49.572C37.4484 49.691 37.9244 49.657 38.3494 49.453C38.8594 49.249 39.2504 48.824 39.5734 48.382C39.6754 48.246 39.7434 48.11 39.8114 47.957C39.8454 47.872 39.8624 47.787 39.8794 47.685ZM47.8354 43.741C47.8694 43.928 47.8354 44.115 47.7164 44.268C47.6144 44.421 47.4444 44.523 47.2744 44.557C46.8324 44.642 46.1524 44.761 45.9484 44.948C45.7274 45.135 45.5744 45.39 45.4894 45.662C45.4214 45.866 45.3704 46.087 45.3364 46.308C45.3194 46.648 45.3024 46.971 45.3194 47.311C45.3194 47.634 45.3194 47.94 45.3194 48.263C45.3364 48.841 45.3024 49.419 45.2174 49.997C45.2004 50.116 45.1834 50.201 45.1834 50.269L45.1664 50.303C45.1494 50.371 45.1324 50.422 45.0984 50.473C45.0814 50.541 45.0474 50.592 45.0134 50.643C44.8774 50.813 44.6734 50.898 44.4524 50.898C44.2144 50.915 43.9934 50.796 43.8574 50.592C43.8234 50.524 43.7894 50.456 43.7724 50.371C43.7724 50.354 43.7554 50.303 43.7384 50.252C43.7384 50.167 43.7214 50.099 43.7214 50.014C43.7214 49.912 43.7214 49.742 43.7214 49.521V48.722C43.7214 48.416 43.7044 47.889 43.6874 47.141C43.6704 46.376 43.6704 45.713 43.6874 45.152C43.6874 44.608 43.7214 44.064 43.7554 43.537C43.7724 43.35 43.8574 43.18 43.9934 43.061C44.1464 42.942 44.3164 42.891 44.5034 42.891C44.6904 42.908 44.8604 42.993 44.9794 43.146C45.0984 43.282 45.1664 43.469 45.1494 43.656C45.1494 43.758 45.1324 43.86 45.1324 43.945C45.4554 43.605 45.8974 43.367 46.3734 43.282C46.7304 43.197 47.2404 43.061 47.5464 43.299C47.6994 43.401 47.8014 43.571 47.8354 43.741ZM54.9823 49.81C55.0843 49.963 55.1183 50.15 55.0843 50.32C55.0333 50.507 54.9313 50.66 54.7613 50.762C54.6593 50.83 54.5403 50.864 54.4043 50.864C54.3533 50.864 54.3023 50.864 54.2513 50.847C54.0643 50.813 53.8943 50.694 53.8093 50.524L53.1123 49.487C52.8063 49.045 52.5683 48.654 52.3983 48.365C52.2113 48.11 52.0583 47.872 51.9223 47.6C51.7863 47.328 51.6843 47.107 51.5823 46.937L50.4773 47.872C50.4773 48.586 50.5113 49.453 50.5453 50.065C50.5623 50.252 50.4943 50.439 50.3583 50.592C50.2393 50.711 50.0693 50.796 49.8823 50.813C49.6953 50.83 49.5083 50.762 49.3723 50.626C49.2363 50.507 49.1683 50.337 49.1513 50.167C49.1003 49.232 49.0833 48.042 49.0833 47.005C49.0833 45.951 49.0833 44.778 49.1173 43.503C49.1343 42.228 49.1513 41.225 49.1513 40.545C49.1513 40.171 49.4573 39.848 49.8483 39.848C50.2393 39.848 50.5453 40.171 50.5453 40.545C50.5453 41.225 50.5283 42.228 50.5113 43.588C50.4943 44.625 50.4773 45.441 50.4773 46.053C51.0723 45.543 51.5823 45.084 52.0243 44.676C52.5513 44.183 53.0443 43.656 53.5033 43.129C53.6223 42.976 53.8093 42.891 53.9963 42.874C54.3703 42.84 54.7103 43.129 54.7443 43.52C54.7613 43.707 54.6933 43.877 54.5743 44.013C53.9623 44.727 53.3163 45.39 52.6363 46.002C52.8403 46.325 53.0273 46.665 53.1803 47.005C53.5033 47.6 53.8773 48.161 54.2683 48.705L54.9823 49.81ZM62.378 46.206C62.361 46.767 62.514 48.875 62.497 49.317C62.497 49.793 62.48 50.116 62.48 50.286V50.337C62.48 50.405 62.48 50.456 62.463 50.507C62.446 50.592 62.429 50.66 62.378 50.728C62.259 50.932 62.038 51.051 61.817 51.051C61.749 51.051 61.698 51.051 61.63 51.034C61.545 51.017 61.443 50.983 61.358 50.915C61.307 50.864 61.256 50.813 61.205 50.745C61.188 50.728 61.171 50.694 61.171 50.66C61.137 50.626 61.12 50.592 61.12 50.558C61.103 50.507 61.086 50.456 61.086 50.405V50.371C61.086 50.337 61.069 50.286 61.069 50.201C60.712 50.49 60.287 50.694 59.828 50.813C59.25 50.932 58.655 50.898 58.111 50.66C57.295 50.337 56.632 49.725 56.258 48.926C55.833 48.059 55.697 47.056 55.867 46.104C55.901 45.849 55.935 45.662 55.969 45.526C56.02 45.356 56.071 45.169 56.139 44.999C56.224 44.778 56.343 44.557 56.496 44.37C56.887 43.86 57.414 43.452 58.009 43.214C58.587 42.993 59.216 42.942 59.828 43.061C60.27 43.163 60.678 43.35 61.035 43.639C61.052 42.483 61.035 41.65 60.967 40.783C60.967 40.596 61.018 40.409 61.137 40.273C61.256 40.12 61.426 40.035 61.613 40.018C61.8 40.018 61.987 40.069 62.123 40.188C62.276 40.307 62.361 40.477 62.378 40.664C62.446 41.701 62.463 42.738 62.429 43.775C62.429 44.013 62.429 44.421 62.412 44.965C62.395 45.492 62.378 45.9 62.378 46.206ZM60.967 48.195V46.308C60.916 46.002 60.831 45.713 60.712 45.424C60.525 45.033 60.219 44.727 59.828 44.54C59.624 44.438 59.386 44.387 59.165 44.387C58.995 44.387 58.825 44.421 58.655 44.472C58.23 44.591 57.856 44.863 57.601 45.22C57.499 45.339 57.431 45.475 57.397 45.628C57.329 45.849 57.278 46.07 57.261 46.308C57.108 46.971 57.193 47.668 57.499 48.28C57.72 48.773 58.128 49.164 58.621 49.368C59.012 49.521 59.454 49.504 59.828 49.334C60.253 49.164 60.627 48.79 60.967 48.195ZM69.8636 43.707C70.2716 44.115 70.5946 44.591 70.7986 45.135C71.0026 45.662 71.1046 46.206 71.1046 46.767C71.0876 47.311 71.0026 47.855 70.8326 48.365C70.5946 49.062 70.1696 49.691 69.6086 50.167C69.0476 50.643 68.3506 50.915 67.6196 50.949C67.5346 50.983 67.4496 51.017 67.3476 51C67.2966 51 67.2456 51 67.1946 50.983C67.0756 50.966 66.9396 50.949 66.8206 50.898C66.7866 50.898 66.7526 50.898 66.7016 50.881C65.7496 50.626 64.9336 49.98 64.4576 49.113C63.9816 48.246 63.8796 47.243 64.1516 46.155C64.2706 45.679 64.4576 45.203 64.7296 44.778C64.9846 44.353 65.3076 43.962 65.6816 43.639C66.4976 42.925 67.6196 42.67 68.6736 42.925C68.8266 42.959 68.9796 43.01 69.1326 43.095C69.2346 43.146 69.3366 43.197 69.4216 43.282C69.4896 43.316 69.5746 43.401 69.6766 43.52L69.8636 43.707ZM69.5066 47.906C69.7106 47.362 69.7616 46.767 69.6426 46.189C69.5406 45.628 69.2856 45.118 68.8776 44.71L68.8606 44.693C68.8096 44.642 68.7586 44.591 68.7076 44.54L68.6736 44.506L68.5716 44.387C68.5546 44.37 68.5376 44.353 68.5036 44.336C68.5036 44.336 68.4866 44.319 68.4696 44.319L68.3506 44.285C67.7386 44.132 67.0926 44.285 66.5996 44.71C66.0556 45.152 65.6646 45.798 65.5116 46.495C65.3246 47.141 65.3756 47.838 65.6816 48.45C65.9876 48.994 66.4976 49.385 67.0926 49.538C67.6196 49.623 68.1466 49.487 68.5886 49.181C69.0136 48.875 69.3366 48.416 69.5066 47.906ZM81.9744 42.874C82.1444 42.908 82.2974 43.027 82.3994 43.197C82.4844 43.35 82.5014 43.554 82.4674 43.724C82.3654 44.047 82.2294 44.506 82.0254 45.084C81.8384 45.645 81.7024 46.036 81.6514 46.206C81.5664 46.444 81.4644 46.852 81.3454 47.413C81.2094 47.991 81.0904 48.433 80.9884 48.739C80.9884 48.756 80.9714 48.824 80.9034 49.113C80.8524 49.351 80.7844 49.589 80.7164 49.81C80.6314 50.082 80.5124 50.32 80.3424 50.541C80.2234 50.694 80.0534 50.813 79.8664 50.881C79.6284 50.966 79.3734 50.949 79.1524 50.83C78.8804 50.694 78.6934 50.456 78.6424 50.167C78.6424 50.116 78.6254 50.082 78.6254 50.065C78.6254 50.048 78.6254 50.048 78.6254 50.031C78.6084 50.031 78.6084 50.014 78.6084 49.997C78.3534 49.402 78.0474 48.195 77.6564 46.342C77.6054 46.087 77.5544 45.849 77.5204 45.645C77.4694 45.798 77.4014 46.087 77.2654 46.597L76.8234 48.263C76.6024 48.977 76.4154 49.521 76.2624 49.912C76.1774 50.15 76.0584 50.354 75.9224 50.541C75.7694 50.83 75.4464 51.017 75.1234 51C75.0894 51 75.0554 51 75.0214 51C74.8174 50.966 74.6134 50.847 74.4944 50.677C74.4094 50.575 74.3584 50.473 74.3244 50.354C74.2394 50.167 74.1884 49.98 74.1544 49.793C74.1374 49.708 74.1034 49.589 74.0864 49.47L74.0354 49.147C74.0184 49.079 74.0184 49.011 74.0014 48.96C74.0014 48.926 73.9844 48.824 73.9504 48.688C73.9164 48.501 73.8824 48.314 73.8484 48.144C73.8484 48.042 73.8314 47.991 73.8144 47.957L73.4064 46.291C73.0324 44.914 72.8284 44.064 72.7604 43.656C72.7264 43.469 72.7774 43.282 72.8794 43.129C72.9814 42.976 73.1514 42.891 73.3384 42.857C73.5084 42.823 73.6954 42.857 73.8484 42.976C74.0014 43.078 74.1034 43.231 74.1374 43.401V43.418C74.1884 43.775 74.4094 44.608 74.7664 45.917L75.1744 47.617C75.1744 47.617 75.1744 47.651 75.2254 47.855L75.3274 48.382C75.3784 48.229 75.4124 48.059 75.4634 47.889L75.9224 46.206C76.0924 45.526 76.1944 45.152 76.2284 45.033L76.2454 44.999C76.2624 44.965 76.2624 44.914 76.2794 44.863C76.2794 44.829 76.2964 44.778 76.3134 44.744C76.3644 44.54 76.4154 44.353 76.4834 44.217C76.5514 43.996 76.6704 43.809 76.8064 43.622C77.0104 43.333 77.3674 43.197 77.7244 43.231C77.9284 43.248 78.1154 43.35 78.2514 43.52C78.3364 43.605 78.4044 43.707 78.4554 43.809C78.5404 44.013 78.6084 44.217 78.6594 44.421C78.7444 44.71 78.8634 45.254 79.0334 46.053C79.2544 47.124 79.4414 47.957 79.5944 48.552L79.6624 48.314C79.7814 47.906 79.9004 47.515 79.9854 47.107C80.1214 46.495 80.2404 46.036 80.3084 45.781C80.3764 45.594 80.4954 45.237 80.6994 44.676C80.8864 44.115 81.0224 43.673 81.1074 43.35C81.1584 43.18 81.2774 43.027 81.4474 42.942C81.6004 42.84 81.7874 42.823 81.9744 42.874ZM90.1203 44.183C90.3753 44.506 90.5283 44.999 90.6133 45.645C90.6813 46.223 90.6983 46.818 90.6643 47.396C90.6643 47.668 90.6303 48.229 90.5793 49.113C90.5453 49.759 90.5283 50.014 90.5283 50.218C90.5283 50.609 90.2223 50.915 89.8313 50.915C89.4403 50.915 89.1343 50.609 89.1343 50.218C89.1343 49.997 89.1513 49.708 89.1853 49.028L89.2703 47.345C89.3043 46.835 89.2873 46.325 89.2193 45.815C89.1513 45.305 89.0493 45.084 88.9813 44.982C88.7433 44.659 88.3523 44.54 87.7913 44.659C87.5363 44.71 87.2813 44.812 87.0603 44.965C86.8563 45.084 86.7033 45.254 86.5843 45.458C86.3463 45.9 86.1933 46.886 86.1423 48.365C86.1423 48.586 86.1423 48.518 86.1253 48.875C86.1253 49.232 86.1253 49.3 86.1253 49.436C86.1083 49.708 86.0913 49.895 86.0743 50.048C86.0573 50.252 86.0063 50.456 85.9043 50.626C85.8703 50.694 85.8193 50.762 85.7513 50.813C85.6153 50.932 85.4453 51 85.2753 51C85.0373 51.017 84.7993 50.898 84.6803 50.677C84.6123 50.609 84.5783 50.524 84.5613 50.422C84.5273 50.269 84.5103 50.116 84.5273 49.946C84.5443 49.283 84.5103 48.807 84.5103 48.127C84.5103 47.77 84.5273 47.26 84.5613 46.631C84.5953 46.019 84.6123 45.458 84.6123 44.982C84.6123 44.557 84.5783 44.149 84.4933 43.741C84.4593 43.571 84.5103 43.384 84.6123 43.231C84.7313 43.078 84.8843 42.976 85.0713 42.942C85.2583 42.908 85.4453 42.959 85.5983 43.061C85.7513 43.18 85.8533 43.333 85.8873 43.52C85.9043 43.707 85.9383 43.826 85.9553 44.047C86.3973 43.656 86.9413 43.401 87.5193 43.282C87.9953 43.18 88.4713 43.197 88.9473 43.333C89.4233 43.469 89.8483 43.775 90.1203 44.183ZM105.453 41.582C105.334 41.735 105.164 41.82 104.977 41.854C104.688 41.888 100.455 41.752 99.1461 41.718C99.0441 41.718 98.9591 41.752 98.8741 41.837C98.8061 41.905 98.7721 41.99 98.7721 42.092C98.7891 42.551 98.8231 43.282 98.8741 44.183C98.8911 44.37 99.0441 44.523 99.2311 44.523C100.132 44.54 103.209 44.591 104.212 44.557C104.416 44.54 104.603 44.608 104.739 44.744C104.875 44.88 104.96 45.05 104.96 45.254C104.977 45.441 104.909 45.628 104.773 45.764C104.654 45.9 104.467 45.985 104.28 45.985C103.26 46.036 100.268 46.002 99.3331 45.985C99.2311 45.968 99.1461 46.019 99.0781 46.087C99.0101 46.155 98.9591 46.24 98.9591 46.342C98.9931 47.141 98.9931 48.586 98.9931 48.977C98.9931 49.606 99.4351 49.504 99.7071 49.47C100.183 49.453 101.135 49.385 102.036 49.317C102.886 49.232 103.736 49.215 104.586 49.232C104.773 49.232 104.96 49.317 105.096 49.47C105.215 49.606 105.283 49.793 105.283 49.98C105.266 50.167 105.181 50.354 105.045 50.49C104.909 50.609 104.722 50.677 104.535 50.677C103.736 50.643 102.954 50.677 102.155 50.745C100.795 50.847 99.9621 50.898 99.6561 50.915C99.6221 50.915 99.5881 50.915 99.5541 50.932C99.5541 50.932 99.5201 50.932 99.4691 50.932C99.4351 50.932 99.4011 50.949 99.3671 50.949C99.1461 50.983 98.9421 50.966 98.7211 50.915C98.1601 50.745 97.7691 50.473 97.5821 50.116C97.4461 49.844 97.4121 49.538 97.4971 49.249C97.5141 49.181 97.5311 49.096 97.5651 49.028V49.011C97.5651 48.875 97.5651 48.365 97.5651 47.498C97.5481 46.733 97.5141 45.628 97.4291 44.166C97.3611 42.721 97.3101 41.667 97.3101 41.004C97.2931 40.8 97.3781 40.63 97.4971 40.477C97.6331 40.341 97.8201 40.256 98.0071 40.273C98.1601 40.273 104.501 40.443 104.807 40.409C104.994 40.392 105.181 40.443 105.334 40.562C105.487 40.681 105.589 40.851 105.606 41.038C105.623 41.225 105.572 41.429 105.453 41.582ZM113.029 46.206C113.012 46.767 113.165 48.875 113.148 49.317C113.148 49.793 113.131 50.116 113.131 50.286V50.337C113.131 50.405 113.131 50.456 113.114 50.507C113.097 50.592 113.08 50.66 113.029 50.728C112.91 50.932 112.689 51.051 112.468 51.051C112.4 51.051 112.349 51.051 112.281 51.034C112.196 51.017 112.094 50.983 112.009 50.915C111.958 50.864 111.907 50.813 111.856 50.745C111.839 50.728 111.822 50.694 111.822 50.66C111.788 50.626 111.771 50.592 111.771 50.558C111.754 50.507 111.737 50.456 111.737 50.405V50.371C111.737 50.337 111.72 50.286 111.72 50.201C111.363 50.49 110.938 50.694 110.479 50.813C109.901 50.932 109.306 50.898 108.762 50.66C107.946 50.337 107.283 49.725 106.909 48.926C106.484 48.059 106.348 47.056 106.518 46.104C106.552 45.849 106.586 45.662 106.62 45.526C106.671 45.356 106.722 45.169 106.79 44.999C106.875 44.778 106.994 44.557 107.147 44.37C107.538 43.86 108.065 43.452 108.66 43.214C109.238 42.993 109.867 42.942 110.479 43.061C110.921 43.163 111.329 43.35 111.686 43.639C111.703 42.483 111.686 41.65 111.618 40.783C111.618 40.596 111.669 40.409 111.788 40.273C111.907 40.12 112.077 40.035 112.264 40.018C112.451 40.018 112.638 40.069 112.774 40.188C112.927 40.307 113.012 40.477 113.029 40.664C113.097 41.701 113.114 42.738 113.08 43.775C113.08 44.013 113.08 44.421 113.063 44.965C113.046 45.492 113.029 45.9 113.029 46.206ZM111.618 48.195V46.308C111.567 46.002 111.482 45.713 111.363 45.424C111.176 45.033 110.87 44.727 110.479 44.54C110.275 44.438 110.037 44.387 109.816 44.387C109.646 44.387 109.476 44.421 109.306 44.472C108.881 44.591 108.507 44.863 108.252 45.22C108.15 45.339 108.082 45.475 108.048 45.628C107.98 45.849 107.929 46.07 107.912 46.308C107.759 46.971 107.844 47.668 108.15 48.28C108.371 48.773 108.779 49.164 109.272 49.368C109.663 49.521 110.105 49.504 110.479 49.334C110.904 49.164 111.278 48.79 111.618 48.195ZM116.452 46.92C116.486 48.484 116.469 49.606 116.435 50.269C116.435 50.456 116.35 50.626 116.214 50.745C116.078 50.864 115.925 50.915 115.755 50.915C115.738 50.915 115.721 50.915 115.704 50.915C115.517 50.915 115.33 50.83 115.211 50.694C115.092 50.541 115.024 50.371 115.041 50.184C115.075 49.572 115.092 48.501 115.058 46.954C115.024 45.458 115.041 44.336 115.075 43.605C115.075 43.418 115.16 43.231 115.296 43.112C115.449 42.993 115.636 42.925 115.806 42.942C115.993 42.959 116.18 43.044 116.299 43.18C116.418 43.316 116.486 43.503 116.469 43.69C116.435 44.387 116.418 45.475 116.452 46.92ZM115.653 41.854C115.466 41.854 115.296 41.803 115.177 41.667C114.888 41.378 115.024 40.885 115.041 40.528C115.041 40.341 115.126 40.171 115.262 40.035C115.398 39.916 115.568 39.848 115.755 39.848C115.942 39.848 116.129 39.933 116.248 40.069C116.367 40.205 116.435 40.375 116.435 40.562C116.435 40.902 116.418 40.868 116.401 41.191C116.384 41.378 116.299 41.565 116.163 41.684C116.027 41.803 115.84 41.871 115.653 41.854ZM121.914 44.319C121.795 44.455 121.608 44.523 121.421 44.523C121.149 44.523 120.792 44.506 120.35 44.506C120.384 45.645 120.452 46.767 120.605 47.889C120.605 47.957 120.622 48.042 120.622 48.144C120.622 48.229 120.639 48.331 120.639 48.433C120.639 48.552 120.639 48.637 120.639 48.688C120.656 48.858 120.69 49.045 120.724 49.215C120.758 49.317 120.826 49.402 120.894 49.453C121.047 49.555 121.217 49.623 121.387 49.674C121.574 49.725 121.71 49.844 121.795 50.014C121.897 50.184 121.914 50.371 121.846 50.558C121.795 50.728 121.659 50.864 121.506 50.949C121.404 51 121.302 51.034 121.2 51.034C121.115 51.034 121.03 51.017 120.962 50.983C120.639 50.898 120.316 50.745 120.044 50.558C119.738 50.337 119.517 50.031 119.415 49.674C119.313 49.385 119.262 49.079 119.245 48.773C119.245 48.722 119.245 48.62 119.228 48.45C119.228 48.28 119.211 48.144 119.211 48.059C119.058 46.716 118.973 45.39 118.956 44.472H118.429C118.038 44.472 117.732 44.166 117.732 43.775C117.732 43.384 118.038 43.078 118.429 43.078H118.973C118.99 42.959 118.99 42.772 119.007 42.517C119.041 42.041 119.041 42.109 119.041 42.092C119.041 42.058 119.024 41.939 119.024 41.446C119.007 41.259 119.058 41.089 119.194 40.936C119.313 40.8 119.483 40.715 119.67 40.698C119.84 40.681 120.027 40.749 120.163 40.868C120.316 40.987 120.401 41.157 120.418 41.344C120.418 41.854 120.435 42.024 120.435 42.058C120.435 42.245 120.418 42.432 120.401 42.619C120.384 42.857 120.384 43.01 120.384 43.112C120.792 43.112 121.149 43.112 121.421 43.112C121.71 43.112 121.965 43.282 122.067 43.554C122.186 43.809 122.118 44.115 121.914 44.319ZM128.832 43.707C129.24 44.115 129.563 44.591 129.767 45.135C129.971 45.662 130.073 46.206 130.073 46.767C130.056 47.311 129.971 47.855 129.801 48.365C129.563 49.062 129.138 49.691 128.577 50.167C128.016 50.643 127.319 50.915 126.588 50.949C126.503 50.983 126.418 51.017 126.316 51C126.265 51 126.214 51 126.163 50.983C126.044 50.966 125.908 50.949 125.789 50.898C125.755 50.898 125.721 50.898 125.67 50.881C124.718 50.626 123.902 49.98 123.426 49.113C122.95 48.246 122.848 47.243 123.12 46.155C123.239 45.679 123.426 45.203 123.698 44.778C123.953 44.353 124.276 43.962 124.65 43.639C125.466 42.925 126.588 42.67 127.642 42.925C127.795 42.959 127.948 43.01 128.101 43.095C128.203 43.146 128.305 43.197 128.39 43.282C128.458 43.316 128.543 43.401 128.645 43.52L128.832 43.707ZM128.475 47.906C128.679 47.362 128.73 46.767 128.611 46.189C128.509 45.628 128.254 45.118 127.846 44.71L127.829 44.693C127.778 44.642 127.727 44.591 127.676 44.54L127.642 44.506L127.54 44.387C127.523 44.37 127.506 44.353 127.472 44.336C127.472 44.336 127.455 44.319 127.438 44.319L127.319 44.285C126.707 44.132 126.061 44.285 125.568 44.71C125.024 45.152 124.633 45.798 124.48 46.495C124.293 47.141 124.344 47.838 124.65 48.45C124.956 48.994 125.466 49.385 126.061 49.538C126.588 49.623 127.115 49.487 127.557 49.181C127.982 48.875 128.305 48.416 128.475 47.906ZM135.724 43.741C135.758 43.928 135.724 44.115 135.605 44.268C135.503 44.421 135.333 44.523 135.163 44.557C134.721 44.642 134.041 44.761 133.837 44.948C133.616 45.135 133.463 45.39 133.378 45.662C133.31 45.866 133.259 46.087 133.225 46.308C133.208 46.648 133.191 46.971 133.208 47.311C133.208 47.634 133.208 47.94 133.208 48.263C133.225 48.841 133.191 49.419 133.106 49.997C133.089 50.116 133.072 50.201 133.072 50.269L133.055 50.303C133.038 50.371 133.021 50.422 132.987 50.473C132.97 50.541 132.936 50.592 132.902 50.643C132.766 50.813 132.562 50.898 132.341 50.898C132.103 50.915 131.882 50.796 131.746 50.592C131.712 50.524 131.678 50.456 131.661 50.371C131.661 50.354 131.644 50.303 131.627 50.252C131.627 50.167 131.61 50.099 131.61 50.014C131.61 49.912 131.61 49.742 131.61 49.521V48.722C131.61 48.416 131.593 47.889 131.576 47.141C131.559 46.376 131.559 45.713 131.576 45.152C131.576 44.608 131.61 44.064 131.644 43.537C131.661 43.35 131.746 43.18 131.882 43.061C132.035 42.942 132.205 42.891 132.392 42.891C132.579 42.908 132.749 42.993 132.868 43.146C132.987 43.282 133.055 43.469 133.038 43.656C133.038 43.758 133.021 43.86 133.021 43.945C133.344 43.605 133.786 43.367 134.262 43.282C134.619 43.197 135.129 43.061 135.435 43.299C135.588 43.401 135.69 43.571 135.724 43.741Z" fill="#FAFAFA"/>
<rect x="4.36035" y="3.63232" width="145.281" height="80.7349" stroke="#2866DF" stroke-width="1.5"/>
<rect x="1" y="1" width="6.71821" height="7.02042" rx="1" fill="white"/>
<rect x="1" y="1" width="6.71821" height="7.02042" rx="1" stroke="#457FE5" stroke-width="1.5"/>
<rect x="1" y="79.9795" width="6.71821" height="7.02042" rx="1" fill="white"/>
<rect x="1" y="79.9795" width="6.71821" height="7.02042" rx="1" stroke="#457FE5" stroke-width="1.5"/>
<rect x="146.282" y="1" width="6.71821" height="7.02042" rx="1" fill="white"/>
<rect x="146.282" y="1" width="6.71821" height="7.02042" rx="1" stroke="#457FE5" stroke-width="1.5"/>
<rect x="146.282" y="79.9795" width="6.71821" height="7.02042" rx="1" fill="white"/>
<rect x="146.282" y="79.9795" width="6.71821" height="7.02042" rx="1" stroke="#457FE5" stroke-width="1.5"/>
</g>
<defs>
<clipPath id="clip0_52_21639">
<rect width="154" height="88" fill="white"/>
</clipPath>
</defs>
</svg>
